<mxfile host="Electron" agent="Mozilla/5.0 (Windows NT 10.0; Win64; x64) AppleWebKit/537.36 (KHTML, like Gecko) draw.io/26.2.15 Chrome/134.0.6998.205 Electron/35.2.1 Safari/537.36" version="26.2.15">
  <diagram name="第 1 页" id="uw4f8qzVNgBKgfIL30I3">
    <mxGraphModel dx="1213" dy="828" grid="1" gridSize="10" guides="1" tooltips="1" connect="1" arrows="1" fold="1" page="1" pageScale="1" pageWidth="827" pageHeight="1169" math="0" shadow="0">
      <root>
        <mxCell id="0" />
        <mxCell id="1" parent="0" />
        <mxCell id="_A_j8nwPmZ6kgPG55Mfo-1" value="" style="ellipse;fillColor=strokeColor;" vertex="1" parent="1">
          <mxGeometry x="178" y="20" width="14" height="14" as="geometry" />
        </mxCell>
        <mxCell id="_A_j8nwPmZ6kgPG55Mfo-2" value="正常" style="rounded=1;arcSize=20;strokeWidth=2" vertex="1" parent="1">
          <mxGeometry x="161" y="84" width="48" height="40" as="geometry" />
        </mxCell>
        <mxCell id="_A_j8nwPmZ6kgPG55Mfo-3" value="巡检中" style="rounded=1;arcSize=20;strokeWidth=2" vertex="1" parent="1">
          <mxGeometry x="44" y="197" width="64" height="40" as="geometry" />
        </mxCell>
        <mxCell id="_A_j8nwPmZ6kgPG55Mfo-4" value="故障" style="rounded=1;arcSize=20;strokeWidth=2" vertex="1" parent="1">
          <mxGeometry x="213" y="197" width="48" height="40" as="geometry" />
        </mxCell>
        <mxCell id="_A_j8nwPmZ6kgPG55Mfo-5" value="维修中" style="rounded=1;arcSize=20;strokeWidth=2" vertex="1" parent="1">
          <mxGeometry x="260" y="309" width="64" height="40" as="geometry" />
        </mxCell>
        <mxCell id="_A_j8nwPmZ6kgPG55Mfo-6" value="报废" style="rounded=1;arcSize=20;strokeWidth=2" vertex="1" parent="1">
          <mxGeometry x="268" y="422" width="48" height="40" as="geometry" />
        </mxCell>
        <mxCell id="_A_j8nwPmZ6kgPG55Mfo-7" value="" style="ellipse;shape=endState;fillColor=strokeColor;" vertex="1" parent="1">
          <mxGeometry x="284" y="535" width="14" height="14" as="geometry" />
        </mxCell>
        <mxCell id="_A_j8nwPmZ6kgPG55Mfo-8" value="" style="curved=1;startArrow=none;;exitX=0.5;exitY=1;entryX=0.5;entryY=0;rounded=0;" edge="1" parent="1" source="_A_j8nwPmZ6kgPG55Mfo-1" target="_A_j8nwPmZ6kgPG55Mfo-2">
          <mxGeometry relative="1" as="geometry">
            <Array as="points" />
          </mxGeometry>
        </mxCell>
        <mxCell id="_A_j8nwPmZ6kgPG55Mfo-9" value="触发定期检查" style="curved=1;startArrow=none;;exitX=0;exitY=0.7;entryX=0.19;entryY=-0.01;rounded=0;" edge="1" parent="1" source="_A_j8nwPmZ6kgPG55Mfo-2" target="_A_j8nwPmZ6kgPG55Mfo-3">
          <mxGeometry relative="1" as="geometry">
            <Array as="points">
              <mxPoint x="20" y="160" />
            </Array>
          </mxGeometry>
        </mxCell>
        <mxCell id="_A_j8nwPmZ6kgPG55Mfo-10" value="无异常发现" style="curved=1;startArrow=none;;exitX=0.81;exitY=-0.01;entryX=0.11;entryY=1;rounded=0;" edge="1" parent="1" source="_A_j8nwPmZ6kgPG55Mfo-3" target="_A_j8nwPmZ6kgPG55Mfo-2">
          <mxGeometry relative="1" as="geometry">
            <Array as="points">
              <mxPoint x="132" y="160" />
            </Array>
          </mxGeometry>
        </mxCell>
        <mxCell id="_A_j8nwPmZ6kgPG55Mfo-11" value="传感器异常" style="curved=1;startArrow=none;;exitX=0.88;exitY=1;entryX=0.5;entryY=-0.01;rounded=0;" edge="1" parent="1" source="_A_j8nwPmZ6kgPG55Mfo-2" target="_A_j8nwPmZ6kgPG55Mfo-4">
          <mxGeometry relative="1" as="geometry">
            <Array as="points">
              <mxPoint x="237" y="160" />
            </Array>
          </mxGeometry>
        </mxCell>
        <mxCell id="_A_j8nwPmZ6kgPG55Mfo-12" value="生成维修工单" style="curved=1;startArrow=none;;exitX=0.5;exitY=0.99;entryX=0.19;entryY=0.01;rounded=0;" edge="1" parent="1" source="_A_j8nwPmZ6kgPG55Mfo-4" target="_A_j8nwPmZ6kgPG55Mfo-5">
          <mxGeometry relative="1" as="geometry">
            <Array as="points">
              <mxPoint x="237" y="273" />
            </Array>
          </mxGeometry>
        </mxCell>
        <mxCell id="_A_j8nwPmZ6kgPG55Mfo-13" value="维修完成确认" style="curved=1;startArrow=none;;exitX=0.79;exitY=0.01;entryX=1;entryY=0.71;rounded=0;" edge="1" parent="1" source="_A_j8nwPmZ6kgPG55Mfo-5" target="_A_j8nwPmZ6kgPG55Mfo-2">
          <mxGeometry relative="1" as="geometry">
            <Array as="points">
              <mxPoint x="346" y="273" />
              <mxPoint x="346" y="160" />
            </Array>
          </mxGeometry>
        </mxCell>
        <mxCell id="_A_j8nwPmZ6kgPG55Mfo-14" value="无法修复判定" style="curved=1;startArrow=none;;exitX=0.49;exitY=1.01;entryX=0.49;entryY=0;rounded=0;" edge="1" parent="1" source="_A_j8nwPmZ6kgPG55Mfo-5" target="_A_j8nwPmZ6kgPG55Mfo-6">
          <mxGeometry relative="1" as="geometry">
            <Array as="points" />
          </mxGeometry>
        </mxCell>
        <mxCell id="_A_j8nwPmZ6kgPG55Mfo-15" value="设备注销" style="curved=1;startArrow=none;;exitX=0.49;exitY=1;entryX=0.54;entryY=-0.02;rounded=0;" edge="1" parent="1" source="_A_j8nwPmZ6kgPG55Mfo-6" target="_A_j8nwPmZ6kgPG55Mfo-7">
          <mxGeometry relative="1" as="geometry">
            <Array as="points" />
          </mxGeometry>
        </mxCell>
      </root>
    </mxGraphModel>
  </diagram>
</mxfile>
